<?xml version="1.0" encoding="iso-8859-1"?>
<!-- Uploaded to: SVG Repo, www.svgrepo.com, Generator: SVG Repo Mixer Tools -->
<svg fill="#000000" height="800px" width="800px" version="1.1" id="Layer_1" xmlns="http://www.w3.org/2000/svg" xmlns:xlink="http://www.w3.org/1999/xlink" 
	 viewBox="0 0 350.297 350.297" xml:space="preserve">
<g>
	<g>
		<path d="M350.208,74.813c-0.942-16.558-8.735-30.49-19.415-42.732c-3.543,2.99-7.086,5.98-10.624,8.97
			c9.201,10.885,16.133,23.322,15.488,38.052c-0.507,11.525-6.758,24.136-14.761,30.971c-12.001,10.25-26.829,15.15-42.414,10.972
			c-8.361-2.243-17.254-7.05-23.147-13.481c-4.122-3.876-7.782-7.885-12.728-10.813c-37.581-22.272-73.426,20.956-97.894,43.464
			L0,273.32c4.828,5.248,9.656,10.496,14.484,15.744c25.37-24.033,50.739-48.072,76.109-72.105
			c29.276-27.74,58.557-55.475,87.834-83.215c10.568-10.015,20.869-21.248,35.656-24.576c15.621-3.523,23.875,5.299,34.58,14.444
			c23.987,20.838,60.375,18.949,82.924-2.688C343.987,109.024,351.191,92.047,350.208,74.813z M248.812,113.044
			c-2.381,2.381-6.246,2.381-8.627,0s-2.381-6.246,0-8.627c2.381-2.381,6.246-2.381,8.627,0
			C251.197,106.797,251.197,110.658,248.812,113.044z"/>
		<path d="M220.882,79.236c4.721,0,9.37,0.65,13.921,1.925c-3.456-6.784-5.432-14.203-4.961-22.579
			c0.62-10.988,5.637-20.403,12.739-28.57c6.907-7.941,19.574-14.08,31.099-14.484c14.735-0.512,27.11,6.533,37.914,15.831
			c3.021-3.512,6.042-7.03,9.062-10.542c-12.145-10.788-26.005-18.703-42.557-19.799c-17.224-1.137-34.263,5.914-46.275,18.207
			c-15.713,16.082-21.202,39.404-15.401,60.237C217.902,79.339,219.382,79.236,220.882,79.236z"/>
		<path d="M242.524,136.831c-3.466,14.751-14.792,24.955-24.899,35.43c-28.001,29.025-56.003,58.056-84.004,87.081
			c-24.264,25.155-48.527,50.304-72.791,75.459c1.495,1.403,15.59,14.653,15.642,14.597c5.161-5.509,10.322-11.023,15.483-16.532
			c27.023-28.851,54.052-57.708,81.075-86.559c14.94-15.954,29.87-31.918,44.815-47.867c14.182-15.13,31.698-29.916,39.194-49.761
			c0.65-1.772,1.178-3.61,1.654-5.463c-5.617-2.514-10.88-5.76-15.688-9.667C242.867,134.63,242.796,135.674,242.524,136.831z"/>
	</g>
</g>
</svg>