<?xml version="1.0" encoding="iso-8859-1"?>
<!-- Uploaded to: SVG Repo, www.svgrepo.com, Generator: SVG Repo Mixer Tools -->
<svg fill="#000000" height="800px" width="800px" version="1.1" id="Layer_1" xmlns="http://www.w3.org/2000/svg" xmlns:xlink="http://www.w3.org/1999/xlink" 
	 viewBox="0 0 512 512" xml:space="preserve">
<g>
	<g>
		<path d="M400.211,184.297l-48.776-19.884c-6.027,6.013-13.815,9.802-22.232,10.85c-12.146,1.511-42.795,5.327-53.936,6.714
			c3.93,6.6,10.691,11.216,18.76,12.19c1.132,0.252-4.78-0.913,29.841,5.849l3.989,38.247c0.897,8.609,8.601,14.885,17.242,13.986
			c8.625-0.899,14.886-8.619,13.986-17.242l-3.656-35.054l32.925,13.423c8.031,3.275,17.192-0.584,20.465-8.611
			C412.095,196.732,408.24,187.57,400.211,184.297z"/>
	</g>
</g>
<g>
	<g>
		<circle cx="343.472" cy="34.851" r="31.1"/>
	</g>
</g>
<g>
	<g>
		<path d="M394.62,107.822l-16.189-5.476l11.741-2.939c8.411-2.106,13.524-10.631,11.419-19.041
			c-2.106-8.412-10.634-13.519-19.041-11.419l-49.305,12.34c-2.707-2.347-5.951-4.159-9.622-5.21
			c-13.461-3.856-27.486,3.938-31.337,17.394l-2.791,9.755c10.015-1.244,20.069-2.497,30.272-3.767
			c11.636-1.449,22.694,2.504,30.674,9.892c5.743,5.316,9.881,12.412,11.493,20.562l22.625,7.652
			c8.229,2.781,17.128-1.64,19.902-9.842C407.24,119.511,402.833,110.599,394.62,107.822z"/>
	</g>
</g>
<g>
	<g>
		<path d="M343.416,134.848c-1.388-10.455-10.991-17.805-21.443-16.418l-74.14,9.84l-56.065-20.052l44.672,2.805
			c-4.868-6.776-12.792-11.085-21.57-11.085c-16.335,0-27.825,0-45.955,0c-12.711,0-23.594,8.969-26.061,21.437l-40.621,205.232
			c-1.387,7.008,4.01,13.501,11.081,13.501c6.482,0,14.898,0,24.513,0V487.6c0,13.476,10.924,24.4,24.4,24.4
			c13.476,0,24.4-10.923,24.4-24.4V340.108c3.509,0,7.027,0,10.536,0V487.6c0,13.476,10.924,24.4,24.4,24.4
			c13.476,0,24.4-10.923,24.4-24.4V340.108c9.617,0,18.033,0,24.513,0c7.11,0,12.466-6.504,11.081-13.501l-28.09-141.917
			l-11.968,1.425c-6.53,0.777-13.099-1.091-18.242-5.191l-47.522-37.879l63.596,22.745c2.759,0.987,5.82,1.363,8.943,0.949
			l78.726-10.447C337.452,154.903,344.802,145.303,343.416,134.848z"/>
	</g>
</g>
<g>
	<g>
		<circle cx="191.893" cy="42.141" r="42.141"/>
	</g>
</g>
</svg>