<!DOCTYPE svg PUBLIC "-//W3C//DTD SVG 1.1//EN" "http://www.w3.org/Graphics/SVG/1.1/DTD/svg11.dtd">
<!-- Uploaded to: SVG Repo, www.svgrepo.com, Transformed by: SVG Repo Mixer Tools -->
<svg width="144px" height="144px" viewBox="0 0 20.2 20.2" xmlns="http://www.w3.org/2000/svg" fill="#000000">
<g id="SVGRepo_bgCarrier" stroke-width="0"/>
<g id="SVGRepo_tracerCarrier" stroke-linecap="round" stroke-linejoin="round"/>
<g id="SVGRepo_iconCarrier"> <g id="medical-receipt-left-3" transform="translate(-1.8 -2)"> <rect id="secondary" fill="#2ca9bc" width="5" height="10.66" rx="2.5" transform="translate(1.964 14.503) rotate(-45)"/> <path id="primary" d="M11,8h6m-4,4h4m-5.73,4.73a2.52,2.52,0,0,1,0,3.54h0a2.52,2.52,0,0,1-3.54,0l-4-4a2.52,2.52,0,0,1,0-3.54h0a2.52,2.52,0,0,1,3.54,0ZM5.84,18.16l3.32-3.32" fill="none" stroke="#000000" stroke-linecap="round" stroke-linejoin="round" stroke-width="2"/> <path id="primary-2" data-name="primary" d="M7,8V4A1,1,0,0,1,8,3H20a1,1,0,0,1,1,1V20a1,1,0,0,1-1,1H16" fill="none" stroke="#000000" stroke-linecap="round" stroke-linejoin="round" stroke-width="2"/> </g> </g>
</svg>